<svg id="visual" viewBox="0 0 900 600" width="900" height="600" xmlns="http://www.w3.org/2000/svg" xmlns:xlink="http://www.w3.org/1999/xlink" version="1.1"><g transform="translate(26.951424772075853 622.9909399895782)"><path d="M101.5 -135.3C136.1 -91.9 172 -64.3 176.9 -31.8C181.8 0.6 155.9 37.8 134.8 81.2C113.7 124.6 97.6 174.1 62.6 198.1C27.7 222.1 -26 220.5 -80.1 206.7C-134.2 192.8 -188.8 166.6 -213.4 123.5C-238.1 80.3 -232.8 20.1 -224.4 -41.6C-215.9 -103.3 -204.4 -166.6 -166.5 -209.4C-128.6 -252.2 -64.3 -274.6 -15.4 -256.2C33.4 -237.8 66.8 -178.7 101.5 -135.3" fill="#4e94ce"></path></g></svg>