<svg id="visual" viewBox="0 0 960 540" width="960" height="540" xmlns="http://www.w3.org/2000/svg" xmlns:xlink="http://www.w3.org/1999/xlink" version="1.1"><rect x="0" y="0" width="960" height="540" fill="#50a9ec"></rect><defs><linearGradient id="grad1_0" x1="43.8%" y1="0%" x2="100%" y2="100%"><stop offset="14.444444444444446%" stop-color="#50a9ec" stop-opacity="1"></stop><stop offset="85.55555555555554%" stop-color="#50a9ec" stop-opacity="1"></stop></linearGradient></defs><defs><linearGradient id="grad2_0" x1="0%" y1="0%" x2="56.3%" y2="100%"><stop offset="14.444444444444446%" stop-color="#50a9ec" stop-opacity="1"></stop><stop offset="85.55555555555554%" stop-color="#50a9ec" stop-opacity="1"></stop></linearGradient></defs><g transform="translate(960, 0)"><path d="M0 513C-71.7 506.6 -143.5 500.2 -192.1 463.8C-240.7 427.3 -266.3 360.9 -315.4 315.4C-364.5 269.9 -437.1 245.4 -474 196.3C-510.8 147.3 -511.9 73.6 -513 0L0 0Z" fill="#ffffff"></path></g><g transform="translate(0, 540)"><path d="M0 -513C72.3 -510.7 144.7 -508.3 196.3 -474C247.9 -439.6 278.8 -373.1 323.9 -323.9C368.9 -274.6 428.1 -242.5 461.9 -191.3C495.8 -140.2 504.4 -70.1 513 0L0 0Z" fill="#ffffff"></path></g></svg>