<?xml version="1.0" encoding="utf-8"?>
<svg viewBox="13.19 7.194 70.143 34.173" xmlns="http://www.w3.org/2000/svg">
  <path d="M 25.632 31.411 Q 22.365 31.411 20.529 29.872 Q 18.882 28.495 18.882 26.335 Q 18.882 23.932 20.88 22.015 Q 23.094 19.882 26.712 19.531 Q 26.415 19.099 26.199 18.613 Q 25.443 18.586 24.741 18.491 Q 24.039 18.397 23.418 18.262 Q 21.177 17.722 19.935 16.534 Q 18.801 15.427 18.801 14.131 Q 18.801 12.673 20.205 11.674 Q 21.609 10.729 23.742 10.729 Q 24.768 10.729 25.821 10.958 Q 26.874 11.188 27.927 11.701 Q 28.008 11.728 28.008 11.863 Q 28.008 12.133 27.765 12.025 Q 25.794 11.08 23.904 11.08 Q 22.23 11.08 21.231 11.917 Q 20.232 12.754 20.232 14.104 Q 20.232 15.319 21.123 16.345 Q 22.149 17.479 23.904 17.884 Q 24.417 17.992 24.957 18.073 Q 25.497 18.154 26.064 18.181 Q 25.956 17.749 25.956 17.182 Q 25.956 15.265 27.495 13.726 Q 29.331 11.89 32.706 11.323 Q 33.057 11.269 33.394 11.242 Q 33.732 11.215 34.056 11.215 Q 35.514 11.215 36.432 11.836 Q 37.35 12.43 37.35 13.429 Q 37.35 14.995 35.163 16.534 Q 32.382 18.451 27.387 18.613 Q 27.414 19.045 27.603 19.45 Q 28.062 19.423 28.521 19.436 Q 28.98 19.45 29.439 19.477 Q 30.411 19.558 30.411 20.206 Q 30.411 20.827 29.358 20.827 Q 27.981 20.827 27.036 19.882 Q 24.552 20.287 22.959 22.393 Q 21.528 24.364 21.528 26.686 Q 21.528 28.576 22.527 29.737 Q 23.607 31.06 25.632 31.06 Q 26.928 31.06 28.089 30.52 Q 29.25 29.98 30.168 29.116 Q 31.086 28.252 31.612 27.307 Q 32.139 26.362 32.139 25.552 Q 32.139 24.796 31.585 24.296 Q 31.032 23.797 29.79 23.797 Q 28.953 23.797 27.994 24.188 Q 27.036 24.58 26.145 25.187 Q 25.254 25.795 24.606 26.443 Q 23.958 27.091 23.742 27.577 Q 23.688 27.739 23.526 27.658 Q 23.364 27.577 23.418 27.415 Q 23.715 26.713 24.39 25.984 Q 25.065 25.255 25.983 24.607 Q 26.901 23.959 27.954 23.567 Q 29.007 23.176 30.087 23.176 Q 32.139 23.176 33.057 23.905 Q 33.975 24.634 33.975 25.66 Q 33.975 26.578 33.354 27.577 Q 32.733 28.576 31.612 29.453 Q 30.492 30.331 28.966 30.871 Q 27.441 31.411 25.632 31.411 Z M 27.387 18.154 Q 31.599 17.938 34.434 15.967 Q 36.729 14.347 36.729 13.159 Q 36.729 11.944 34.758 11.944 Q 32.085 11.944 29.601 14.158 Q 27.549 15.967 27.387 18.154 Z" style="fill: rgb(51, 51, 51);"/>
  <path d="M 37.341 29.899 Q 35.532 29.899 35.532 27.658 Q 35.532 26.389 36.099 24.985 Q 36.531 23.932 36.977 22.933 Q 37.422 21.934 37.854 21.016 Q 38.151 20.449 38.907 20.449 L 40.554 20.449 Q 40.068 20.8 39.636 21.367 Q 39.204 21.934 38.826 22.717 Q 37.071 26.281 37.071 27.82 Q 37.071 29.008 38.016 29.008 Q 39.636 29.008 41.418 24.553 Q 41.067 23.824 41.067 22.825 Q 41.067 22.339 41.202 21.853 Q 41.499 20.854 42.093 20.341 Q 42.633 19.855 43.092 19.855 Q 43.578 19.855 43.578 20.287 L 43.443 20.773 Q 42.849 22.609 42.323 23.999 Q 41.796 25.39 41.31 26.335 Q 39.447 29.899 37.341 29.899 Z" style="fill: rgb(51, 51, 51);"/>
  <path d="M 45.601 29.818 Q 44.548 29.818 43.792 29.143 Q 43.387 28.765 43.212 28.265 Q 43.036 27.766 43.036 27.118 Q 43.036 24.634 45.088 22.177 Q 46.816 20.098 48.679 20.098 Q 49.3 20.098 49.732 20.422 Q 50.191 20.8 50.191 21.394 Q 50.191 22.879 48.22 24.364 Q 47.599 24.823 46.573 25.174 Q 45.439 25.552 44.926 25.552 Q 44.548 26.47 44.548 27.496 Q 44.548 29.251 45.844 29.251 Q 47.545 29.251 49.03 27.037 L 49.138 26.875 L 49.597 27.064 L 49.516 27.226 Q 48.841 28.576 47.815 29.197 Q 46.789 29.818 45.601 29.818 Z M 45.088 25.093 Q 45.547 25.093 46.357 24.796 Q 46.816 24.607 47.235 24.391 Q 47.653 24.175 47.977 23.905 Q 49.462 22.663 49.462 21.286 Q 49.462 20.692 49.03 20.692 Q 48.274 20.692 46.735 22.555 Q 45.952 23.5 45.088 25.093 Z" style="fill: rgb(51, 51, 51);"/>
  <path d="M 49.637 29.899 Q 50.177 28.576 50.987 26.632 Q 51.797 24.688 52.958 22.15 Q 53.201 21.61 53.417 21.259 Q 53.633 20.908 53.822 20.719 Q 54.2 20.341 54.794 20.341 Q 54.848 20.341 54.983 20.341 Q 55.118 20.341 55.361 20.395 Q 55.739 20.422 55.928 20.395 Q 54.929 20.989 52.931 25.633 Q 53.255 25.174 53.809 24.62 Q 54.362 24.067 55.118 23.392 Q 55.604 22.933 56.198 22.514 Q 56.792 22.096 57.494 21.718 Q 59.087 20.827 59.843 20.827 Q 60.032 20.827 60.113 20.854 Q 59.681 21.61 59.317 22.312 Q 58.952 23.014 58.628 23.635 Q 57.062 26.659 56.873 27.82 Q 56.846 28.009 56.833 28.171 Q 56.819 28.333 56.819 28.468 Q 56.819 29.17 57.332 29.17 Q 58.169 29.17 59.33 27.469 L 59.708 27.739 Q 58.331 29.818 56.927 29.818 Q 55.226 29.818 55.226 28.063 Q 55.226 26.632 56.981 23.824 Q 57.251 23.392 57.251 23.095 Q 57.251 22.771 56.954 22.771 Q 56.657 22.771 56.185 23.081 Q 55.712 23.392 55.064 23.986 Q 54.038 24.931 53.147 26.24 Q 52.256 27.55 51.527 29.224 Q 51.365 29.629 50.69 29.71 Q 49.826 29.791 49.637 29.899 Z" style="fill: rgb(51, 51, 51);"/>
  <path d="M 62.811 29.71 Q 61.056 29.71 61.056 27.793 Q 61.056 27.415 61.123 27.01 Q 61.191 26.605 61.353 26.2 Q 62.784 22.42 63.783 20.044 L 62.028 20.044 L 62.352 19.45 L 64.026 19.45 L 64.674 17.56 Q 65.025 16.561 65.268 16.372 Q 65.457 16.237 66.132 16.237 L 67.293 16.264 Q 66.753 16.723 66.483 17.371 L 65.592 19.45 L 67.644 19.45 L 67.32 20.044 L 65.349 20.044 Q 65.16 20.476 64.984 20.908 Q 64.809 21.34 64.593 21.799 Q 64.026 23.041 63.621 24.148 Q 63.135 25.417 62.851 26.335 Q 62.568 27.253 62.514 27.793 Q 62.406 29.116 63.216 29.116 Q 63.972 29.116 65.052 27.496 L 65.376 27.874 Q 64.08 29.71 62.811 29.71 Z" style="fill: rgb(51, 51, 51);"/>
  <path d="M 66.033 36.757 Q 64.575 36.757 63.873 35.812 Q 63.576 35.353 63.576 34.597 Q 63.576 34.003 63.738 33.733 L 64.251 33.706 Q 64.089 34.138 64.089 34.543 Q 64.089 36.001 65.79 36.001 Q 67.275 36.001 68.868 33.679 Q 69.462 32.815 70.083 31.6 Q 70.704 30.385 71.325 28.819 Q 71.757 27.793 72.148 26.767 Q 72.54 25.741 72.945 24.715 Q 72.243 25.957 71.77 26.74 Q 71.298 27.523 71.082 27.82 Q 69.678 29.71 68.328 29.71 Q 66.816 29.71 66.816 27.739 Q 66.816 26.443 67.41 24.985 Q 68.274 22.879 69.192 21.016 Q 69.489 20.449 70.218 20.449 L 71.649 20.449 Q 70.893 20.989 70.056 22.717 Q 68.166 26.524 68.166 28.144 Q 68.166 29.035 68.814 29.035 Q 70.056 29.035 71.973 25.66 Q 72.108 25.39 72.702 24.215 Q 73.296 23.041 74.295 20.989 Q 74.592 20.422 75.321 20.422 L 77.049 20.422 Q 76.698 20.692 76.077 21.394 Q 75.861 21.745 75.55 22.312 Q 75.24 22.879 74.889 23.689 Q 74.457 24.742 73.755 26.564 Q 73.053 28.387 71.946 30.952 Q 71.379 32.302 70.825 33.26 Q 70.272 34.219 69.813 34.813 Q 68.247 36.757 66.033 36.757 Z" style="fill: rgb(51, 51, 51);"/>
</svg>